#!OML:ASF Y:\EmotionMaleHayes\Project 1\Capture day 1\Session 1\Male1.ASF
:FULLY-SPECIFIED
:DEGREES
347
root 17.6216 15.3678 -0.903661 -44.1632 83.5003 -53.5291
lowerback 21.6255 0.176 1.64965
upperback 7.25679 1.22805 2.69516
thorax -4.20307 0.794293 1.63144
lowerneck -26.1003 3.75647 3.39024
upperneck 16.2188 4.6886 -3.58819
head 9.5482 1.96224 -1.08138
rclavicle 1.85864e-014 4.35338e-014
rhumerus -44.7828 22.0493 -87.2809
rradius 77.6846
rwrist -11.1922
rhand -30.4508 -24.0026
rfingers 7.12502
rthumb -3.75281 -53.9493
lclavicle 1.85864e-014 4.35338e-014
lhumerus -47.3382 -26.8795 104.652
lradius 77.8779
lwrist 9.36877
lhand -39.9455 -33.4537
lfingers 7.12502
lthumb -12.9153 -3.87335
rfemur -37.0042 -3.67451 28.9628
rtibia 59.9121
rfoot 149.952 -186.673
rtoes -9.29223
lfemur -0.34114 6.13598 -14.0185
ltibia 87.8635
lfoot 62.1287 -73.7396
ltoes -10.1957
348
root 18.1178 15.375 -0.895399 -50.0895 81.851 -59.3547
lowerback 21.9967 0.337308 3.14224
upperback 7.07258 1.80309 3.14937
thorax -4.57238 1.07693 1.12147
lowerneck -26.0161 3.6798 3.49733
upperneck 16.0885 4.55937 -3.66129
head 9.48776 1.90279 -1.14569
rclavicle 3.49861e-014 4.03533e-014
rhumerus -40.8832 22.1396 -87.4238
rradius 77.301
rwrist -9.61825
rhand -31.607 -22.6755
rfingers 7.12502
rthumb -4.86922 -52.5996
lclavicle 3.49861e-014 4.03533e-014
lhumerus -49.9434 -24.915 104.362
lradius 77.0847
lwrist 10.3767
lhand -40.9587 -34.4417
lfingers 7.12502
lthumb -13.8918 -4.9257
rfemur -33.6797 -2.8782 30.7963
rtibia 58.7504
rfoot 148.819 -186.236
rtoes -8.86245
lfemur -4.57381 7.4609 -11.6517
ltibia 86.5159
lfoot 144.525 -64.9661
ltoes -9.13533
349
root 18.6066 15.3968 -0.868358 -51.4184 81.0271 -60.8395
lowerback 22.0259 0.627967 3.52537
upperback 6.90184 2.28111 3.42026
thorax -4.76883 1.30316 1.07208
lowerneck -26.1495 3.61065 3.72665
upperneck 16.0613 4.46508 -4.05442
head 9.51355 1.8254 -1.33425
rclavicle -1.23246e-014 -1.41137e-014
rhumerus -36.9127 22.0966 -87.5204
rradius 77.2901
rwrist -8.66648
rhand -31.9242 -21.5314
rfingers 7.12502
rthumb -5.17552 -51.4482
lclavicle -1.23246e-014 -1.41137e-014
lhumerus -52.5415 -23.495 103.898
lradius 76.8736
lwrist 11.8529
lhand -41.3834 -35.8957
lfingers 7.12502
lthumb -14.3011 -6.40817
rfemur -31.038 -2.11684 31.5986
rtibia 57.7693
rfoot 148.081 -186.254
rtoes -9.26932
lfemur -9.53074 8.51322 -10.5231
ltibia 82.5495
lfoot 164.514 -39.935
ltoes -9.42787
350
root 19.1096 15.4371 -0.848696 -51.721 80.7353 -61.0174
lowerback 22.0106 0.891441 3.53187
upperback 6.96654 2.63459 3.54906
thorax -4.69593 1.47881 1.11846
lowerneck -26.3987 3.51329 3.87584
upperneck 16.0243 4.34552 -4.39624
head 9.55022 1.73582 -1.49553
rclavicle -1.64991e-014 -2.40529e-014
rhumerus -32.7223 21.9861 -87.5109
rradius 76.7931
rwrist -6.828
rhand -32.7828 -19.7242
rfingers 7.12502
rthumb -6.00453 -49.6191
lclavicle -1.64991e-014 -2.40529e-014
lhumerus -54.915 -22.6404 103.407
lradius 77.0434
lwrist 13.351
lhand -41.3517 -35.0335
lfingers 7.12502
lthumb -14.2705 -5.54384
rfemur -27.9992 -1.89714 31.6592
rtibia 56.5898
rfoot 147.33 -186.205
rtoes -10.1134
lfemur -14.3167 9.18143 -10.2113
ltibia 78.8281
lfoot 172.262 -13.1373
ltoes -8.83049
351
root 19.6129 15.4763 -0.836051 -54.1138 80.4017 -63.3005
lowerback 21.9964 1.02606 3.92069
upperback 6.96863 2.91162 3.7477
thorax -4.6774 1.61724 1.04228
lowerneck -27.0633 3.22685 3.87727
upperneck 16.3993 3.96215 -4.47127
head 9.77996 1.53731 -1.58063
rclavicle 6.55989e-015 -7.55382e-015
rhumerus -28.7199 21.5581 -87.5257
rradius 76.7238
rwrist -5.40195
rhand -32.8733 -19.1193
rfingers 7.12502
rthumb -6.09191 -49.0118
lclavicle 6.55989e-015 -7.55382e-015
lhumerus -57.4495 -22.2534 103.187
lradius 76.9498
lwrist 14.5571
lhand -41.6485 -36.3658
lfingers 7.12502
lthumb -14.5565 -6.89652
rfemur -24.8619 -2.0612 31.9155
rtibia 55.1684
rfoot 146.739 -186.027
rtoes -10.9943
lfemur -19.1199 9.4534 -9.75832
ltibia 76.3569
lfoot 172.748 -10.353
ltoes -5.68151
352
root 20.1138 15.5171 -0.825189 -57.3538 79.9478 -66.5651
lowerback 21.9028 1.13218 4.52237
upperback 6.86088 3.19714 4.00901
thorax -4.72743 1.7559 0.912156
lowerneck -26.8613 2.95357 3.40764
upperneck 16.3023 3.72772 -4.28431
head 9.68753 1.42485 -1.47712
rclavicle 2.70347e-014 6.20208e-014
rhumerus -25.1864 20.8245 -87.6713
rradius 76.9096
rwrist -3.71531
rhand -33.4406 -18.4335
rfingers 7.12502
rthumb -6.63958 -48.3094
lclavicle 2.70347e-014 6.20208e-014
lhumerus -60.1993 -22.2374 103.225
lradius 77.2921
lwrist 15.4187
lhand -41.9642 -36.6957
lfingers 7.12502
lthumb -14.8606 -7.24868
rfemur -21.8275 -2.3146 32.3705
rtibia 53.548
rfoot 146.587 -185.904
rtoes -12.4525
lfemur -24.1178 9.55887 -9.11243
ltibia 74.5182
lfoot 171.701 -8.90408
ltoes -9.91326
353
root 20.6208 15.5629 -0.814025 -59.8412 79.6122 -69.2699
lowerback 21.4629 1.30034 4.9404
upperback 6.72122 3.48684 4.21753
thorax -4.63855 1.89557 0.839861
lowerneck -26.7711 2.7055 3.25338
upperneck 16.374 3.4675 -4.34439
head 9.68601 1.28786 -1.51587
rclavicle 5.36719e-015 2.18663e-014
rhumerus -22.1061 20.109 -87.8865
rradius 77.7055
rwrist -2.25107
rhand -33.1072 -18.4826
rfingers 7.12502
rthumb -6.31769 -48.3684
lclavicle 5.36719e-015 2.18663e-014
lhumerus -62.8906 -22.4719 103.196
lradius 77.7141
lwrist 15.5846
lhand -41.5881 -36.8227
lfingers 7.12502
lthumb -14.4983 -7.34929
rfemur -18.974 -2.5793 32.6243
rtibia 51.7934
rfoot 146.616 -185.821
rtoes -14.2793
lfemur -29.3059 9.62809 -8.63449
ltibia 73.2547
lfoot 171.321 -7.61195
ltoes -9.97157
354
root 21.1328 15.6102 -0.808155 -61.7967 79.1625 -71.4883
lowerback 20.784 1.53125 5.38033
upperback 6.65724 3.83798 4.44447
thorax -4.33984 2.0726 0.774757
lowerneck -27.0079 2.42623 2.9508
upperneck 16.7594 3.17318 -4.18902
head 9.84335 1.14461 -1.46
rclavicle -6.32135e-014 -5.68524e-014
rhumerus -19.3745 19.5228 -88.0594
rradius 78.7255
rwrist -1.24621
rhand -33.2089 -18.163
rfingers 7.12502
rthumb -6.41591 -48.0459
lclavicle -6.32135e-014 -5.68524e-014
lhumerus -65.3698 -22.9135 103.271
lradius 78.4608
lwrist 15.2328
lhand -41.1647 -35.3516
lfingers 7.12502
lthumb -14.0903 -5.84932
rfemur -16.0221 -2.70066 32.9121
rtibia 49.7917
rfoot 146.749 -185.49
rtoes -15.5326
lfemur -34.2991 9.72869 -8.09563
ltibia 72.6721
lfoot 170.923 -6.67863
ltoes -9.36428
355
root 21.6536 15.6584 -0.807748 -62.9222 78.539 -72.7763
lowerback 20.9457 1.86572 5.97205
upperback 6.07202 4.43145 4.60002
thorax -5.01224 2.32579 0.446692
lowerneck -26.7864 2.12861 3.04022
upperneck 17.3011 2.76535 -4.22148
head 9.98625 0.957288 -1.55544
rclavicle -9.34288e-015 -2.38542e-015
rhumerus -18.0444 18.8369 -88.6775
rradius 80.0504
rwrist -1.05317
rhand -33.6633 -17.4933
rfingers 7.12502
rthumb -6.85459 -47.3623
lclavicle -9.34288e-015 -2.38542e-015
lhumerus -68.7317 -23.5188 103.849
lradius 78.9683
lwrist 14.1162
lhand -41.3549 -36.1118
lfingers 7.12502
lthumb -14.2736 -6.62234
rfemur -12.7037 -2.6322 33.2393
rtibia 47.3877
rfoot 147.285 -184.966
rtoes -17.0437
lfemur -38.7245 9.83253 -7.44756
ltibia 73.0595
lfoot 170.104 -6.36065
ltoes -11.5693
356
root 22.1822 15.7027 -0.804595 -59.0842 77.5874 -69.2882
lowerback 20.6165 2.68557 6.08374
upperback 5.65453 5.49334 4.67026
thorax -5.25879 2.81609 0.210121
lowerneck -26.9749 1.75683 2.82901
upperneck 17.9283 2.29317 -3.96833
head 10.2195 0.751376 -1.51138
rclavicle 2.10712e-014 3.97569e-015
rhumerus -16.6428 18.3767 -89.11
rradius 81.5264
rwrist -1.68328
rhand -33.7654 -17.6403
rfingers 7.12502
rthumb -6.95312 -47.5061
lclavicle 2.10712e-014 3.97569e-015
lhumerus -71.7265 -24.3978 104.492
lradius 79.2639
lwrist 12.7597
lhand -41.9925 -37.4849
lfingers 7.12502
lthumb -14.8879 -8.03984
rfemur -9.71604 -1.58121 33.4301
rtibia 45.1244
rfoot 148.299 -184.287
rtoes -19.1106
lfemur -42.8603 10.9875 -6.89993
ltibia 74.1572
lfoot 169.449 -6.37207
ltoes -11.9481
357
root 22.7545 15.7723 -0.816731 -60.8931 77.7166 -70.5145
lowerback 20.7686 2.90827 6.3267
upperback 5.60701 5.84895 4.62666
thorax -5.3489 2.98421 -0.0665189
lowerneck -27.0445 1.36164 2.68041
upperneck 18.3246 1.77743 -3.79575
head 10.3521 0.524013 -1.51276
rclavicle 4.53229e-014 5.36719e-014
rhumerus -15.2314 18.2248 -89.2548
rradius 83.2057
rwrist -2.90861
rhand -33.9692 -18.3742
rfingers 7.12502
rthumb -7.14988 -48.2334
lclavicle 4.53229e-014 5.36719e-014
lhumerus -74.3576 -25.3287 105.057
lradius 79.6128
lwrist 12.0144
lhand -41.9129 -37.8154
lfingers 7.12502
lthumb -14.8113 -8.36468
rfemur -5.12649 -1.88619 32.7522
rtibia 41.8731
rfoot 149.641 -183.584
rtoes -20.4476
lfemur -45.4106 10.2499 -6.74239
ltibia 76.3503
lfoot 169.042 -6.43409
ltoes -9.50315
358
root 23.3282 15.8372 -0.837924 -60.669 77.5248 -69.9142
lowerback 20.7076 3.32413 6.65784
upperback 5.47413 6.44757 4.55009
thorax -5.39189 3.26532 -0.472685
lowerneck -27.1112 0.762825 2.02528
upperneck 18.8735 1.05092 -3.10251
head 10.5286 0.230756 -1.27955
rclavicle 1.31198e-014 2.34566e-014
rhumerus -14.1701 18.1576 -89.2632
rradius 85.0151
rwrist -4.9087
rhand -34.0829 -18.5455
rfingers 7.12502
rthumb -7.25956 -48.401
lclavicle 1.31198e-014 2.34566e-014
lhumerus -77.0513 -26.2709 105.715
lradius 79.906
lwrist 11.5632
lhand -41.7238 -38.356
lfingers 7.12502
lthumb -14.6291 -8.89202
rfemur -1.03936 -1.68899 32.148
rtibia 38.9484
rfoot 151.411 -182.487
rtoes -21.8049
lfemur -47.8951 10.1057 -6.57775
ltibia 79.0391
lfoot 168.591 -7.06727
ltoes -9.76159
359
root 23.9054 15.9 -0.86934 -59.7989 77.1461 -68.8227
lowerback 20.7181 3.79746 7.15984
upperback 5.13936 7.16322 4.4115
thorax -5.64624 3.58312 -1.07779
lowerneck -27.2193 0.160265 1.52216
upperneck 19.6566 0.267626 -2.44265
head 10.8105 -0.0785322 -1.09466
rclavicle 3.61788e-014 3.02153e-014
rhumerus -13.6187 18.313 -89.2418
rradius 86.5853
rwrist -6.72435
rhand -34.9476 -18.6207
rfingers 7.12502
rthumb -8.0942 -48.4457
lclavicle 3.61788e-014 3.02153e-014
lhumerus -80.0631 -27.1466 106.478
lradius 80.1672
lwrist 11.262
lhand -41.9156 -39.4436
lfingers 7.12502
lthumb -14.8139 -9.99306
rfemur 2.69662 -1.39885 31.566
rtibia 36.0944
rfoot 153.899 -181.155
rtoes -23.1299
lfemur -50.1981 10.2475 -6.37268
ltibia 83.6703
lfoot 160.926 -42.7376
ltoes -13.6641
